<?xml version="1.0" encoding="UTF-8" standalone="no"?>
<!DOCTYPE svg PUBLIC "-//W3C//DTD SVG 1.1//EN" "http://www.w3.org/Graphics/SVG/1.1/DTD/svg11.dtd">
<svg version="1.1" xmlns="http://www.w3.org/2000/svg" xmlns:xlink="http://www.w3.org/1999/xlink" preserveAspectRatio="xMidYMid meet" viewBox="0 0 640 640" width="640" height="640"><defs><path d="M346.76 422.6L347.56 422.68L348.36 422.79L349.15 422.94L349.92 423.11L350.69 423.32L351.44 423.55L352.17 423.81L352.9 424.1L353.61 424.42L354.31 424.76L354.99 425.13L355.65 425.53L356.3 425.95L356.93 426.39L357.54 426.86L358.13 427.34L358.7 427.86L359.26 428.39L359.79 428.94L360.3 429.51L360.79 430.11L361.26 430.72L361.7 431.35L362.12 432L362.51 432.66L362.88 433.34L363.23 434.03L363.54 434.75L363.83 435.47L364.1 436.21L364.33 436.96L364.53 437.72L364.71 438.5L364.85 439.29L364.97 440.08L365.05 440.89L365.1 441.71L365.11 442.53L365.11 466.9L365.1 467.72L365.05 468.54L364.97 469.35L364.85 470.14L364.71 470.93L364.53 471.7L364.33 472.47L364.1 473.22L363.83 473.96L363.54 474.68L363.23 475.39L362.88 476.09L362.51 476.77L362.12 477.43L361.7 478.08L361.26 478.71L360.79 479.32L360.3 479.91L359.79 480.49L359.26 481.04L358.7 481.57L358.13 482.08L357.54 482.57L356.93 483.04L356.3 483.48L355.65 483.9L354.99 484.3L354.31 484.67L353.61 485.01L352.9 485.33L352.17 485.62L351.44 485.88L350.69 486.11L349.92 486.32L349.15 486.49L348.36 486.64L347.56 486.75L346.76 486.83L345.94 486.88L345.11 486.9L343.56 486.9L343.56 488.16L343.53 489.3L343.44 490.42L343.28 491.52L343.07 492.6L342.8 493.65L342.47 494.69L342.09 495.7L341.66 496.68L341.18 497.64L340.65 498.56L340.07 499.45L339.45 500.31L338.78 501.14L338.07 501.93L337.33 502.67L336.54 503.38L335.71 504.05L334.86 504.67L333.96 505.25L333.04 505.78L332.08 506.26L331.1 506.69L330.09 507.07L329.05 507.4L328 507.67L326.92 507.88L325.82 508.04L324.7 508.13L323.56 508.16L316.44 508.16L315.3 508.13L314.18 508.04L313.08 507.88L312 507.67L310.95 507.4L309.91 507.07L308.9 506.69L307.92 506.26L306.96 505.78L306.04 505.25L305.14 504.67L304.29 504.05L303.46 503.38L302.67 502.67L301.93 501.93L301.22 501.14L300.55 500.31L299.93 499.45L299.35 498.56L298.82 497.64L298.34 496.68L297.91 495.7L297.53 494.69L297.2 493.65L296.93 492.6L296.72 491.52L296.56 490.42L296.47 489.3L296.44 488.16L296.44 486.9L343.56 486.9L343.56 485.63L343.53 484.5L343.44 483.38L343.28 482.28L343.07 481.2L342.8 480.14L342.47 479.11L342.09 478.1L341.66 477.11L341.18 476.16L340.65 475.23L340.07 474.34L339.45 473.48L338.78 472.66L338.07 471.87L337.33 471.12L336.54 470.41L335.71 469.75L334.86 469.12L333.96 468.55L333.04 468.02L332.08 467.53L331.1 467.1L330.09 466.72L329.05 466.4L328 466.13L326.92 465.91L325.82 465.76L324.7 465.67L323.56 465.63L316.44 465.63L315.3 465.67L314.18 465.76L313.08 465.91L312 466.13L310.95 466.4L309.91 466.72L308.9 467.1L307.92 467.53L306.96 468.02L306.04 468.55L305.14 469.12L304.29 469.75L303.46 470.41L302.67 471.12L301.93 471.87L301.22 472.66L300.55 473.48L299.93 474.34L299.35 475.23L298.82 476.16L298.34 477.11L297.91 478.1L297.53 479.11L297.2 480.14L296.93 481.2L296.72 482.28L296.56 483.38L296.47 484.5L296.44 485.63L296.44 486.9L294.89 486.9L294.06 486.88L293.24 486.83L292.44 486.75L291.64 486.64L290.85 486.49L290.08 486.32L289.31 486.11L288.56 485.88L287.83 485.62L287.1 485.33L286.39 485.01L285.69 484.67L285.01 484.3L284.35 483.9L283.7 483.48L283.07 483.04L282.46 482.57L281.87 482.08L281.3 481.57L280.74 481.04L280.21 480.49L279.7 479.91L279.21 479.32L278.74 478.71L278.3 478.08L277.88 477.43L277.49 476.77L277.12 476.09L276.77 475.39L276.46 474.68L276.17 473.96L275.9 473.22L275.67 472.47L275.47 471.7L275.29 470.93L275.15 470.14L275.03 469.35L274.95 468.54L274.9 467.72L274.89 466.9L274.89 442.53L274.9 441.71L274.95 440.89L275.03 440.08L275.15 439.29L275.29 438.5L275.47 437.72L275.67 436.96L275.9 436.21L276.17 435.47L276.46 434.75L276.77 434.03L277.12 433.34L277.49 432.66L277.88 432L278.3 431.35L278.74 430.72L279.21 430.11L279.7 429.51L280.21 428.94L280.74 428.39L281.3 427.86L281.87 427.34L282.46 426.86L283.07 426.39L283.7 425.95L284.35 425.53L285.01 425.13L285.69 424.76L286.39 424.42L287.1 424.1L287.83 423.81L288.56 423.55L289.31 423.32L290.08 423.11L290.85 422.94L291.64 422.79L292.44 422.68L293.24 422.6L294.06 422.55L294.89 422.53L345.11 422.53L345.94 422.55L346.76 422.6Z" id="a8HU8e61ml"></path><path d="M328.61 170.13L332.85 170.53L337.04 171.09L341.17 171.8L345.24 172.66L349.26 173.66L353.21 174.81L357.09 176.1L360.89 177.52L364.63 179.08L368.28 180.77L371.86 182.58L375.35 184.52L378.75 186.58L382.05 188.76L385.27 191.05L388.38 193.45L391.4 195.96L394.3 198.58L397.1 201.29L399.79 204.11L402.36 207.02L404.81 210.02L407.14 213.12L409.35 216.29L411.42 219.55L413.36 222.89L415.17 226.31L416.84 229.8L418.36 233.36L419.74 236.98L420.97 240.67L422.04 244.42L422.96 248.23L423.72 252.09L424.32 256L424.75 259.96L425.01 263.96L425.1 268.01L425.01 272.05L424.75 276.06L424.32 280.02L423.72 283.93L422.96 287.79L422.04 291.6L420.97 295.35L419.74 299.04L418.36 302.66L416.84 306.22L415.17 309.71L413.36 313.13L411.42 316.47L409.35 319.73L407.14 322.9L404.81 325.99L402.36 329L399.79 331.91L397.1 334.72L394.3 337.44L391.4 340.06L388.38 342.57L385.27 344.97L382.05 347.26L378.75 349.44L375.35 351.5L372.84 352.89L372.84 394.46L372.82 395.29L372.77 396.1L372.69 396.91L372.58 397.71L372.43 398.49L372.26 399.27L372.05 400.03L371.82 400.78L371.56 401.52L371.27 402.25L370.95 402.96L370.61 403.65L370.24 404.33L369.84 405L369.42 405.64L368.98 406.27L368.51 406.88L368.02 407.48L367.51 408.05L366.98 408.6L366.43 409.14L365.85 409.65L365.26 410.14L364.65 410.6L364.02 411.05L363.37 411.47L362.71 411.86L362.03 412.23L361.33 412.57L360.62 412.89L359.9 413.18L359.16 413.44L358.41 413.68L357.64 413.88L356.87 414.06L356.08 414.2L355.28 414.31L354.48 414.4L353.66 414.44L352.84 414.46L287.16 414.46L286.34 414.44L285.52 414.4L284.72 414.31L283.92 414.2L283.13 414.06L282.36 413.88L281.59 413.68L280.84 413.44L280.1 413.18L279.38 412.89L278.67 412.57L277.97 412.23L277.29 411.86L276.63 411.47L275.98 411.05L275.35 410.6L274.74 410.14L274.15 409.65L273.57 409.14L273.02 408.6L272.49 408.05L271.98 407.48L271.49 406.88L271.02 406.27L270.58 405.64L270.16 405L269.76 404.33L269.39 403.65L269.05 402.96L268.73 402.25L268.44 401.52L268.18 400.78L267.95 400.03L267.74 399.27L267.57 398.49L267.42 397.71L267.31 396.91L267.23 396.1L267.18 395.29L267.16 394.46L267.16 352.89L264.65 351.5L261.25 349.44L257.95 347.26L254.73 344.97L251.62 342.57L248.6 340.06L245.7 337.44L242.9 334.72L240.21 331.91L237.64 329L235.19 325.99L232.86 322.9L230.65 319.73L228.58 316.47L226.64 313.13L224.83 309.71L223.16 306.22L221.64 302.66L220.26 299.04L219.03 295.35L217.96 291.6L217.04 287.79L216.28 283.93L215.68 280.02L215.25 276.06L214.99 272.05L214.9 268.01L214.99 263.96L215.25 259.96L215.68 256L216.28 252.09L217.04 248.23L217.96 244.42L219.03 240.67L220.26 236.98L221.64 233.36L223.16 229.8L224.83 226.31L226.64 222.89L228.58 219.55L230.65 216.29L232.86 213.12L235.19 210.02L237.64 207.02L240.21 204.11L242.9 201.29L245.7 198.58L248.6 195.96L251.62 193.45L254.73 191.05L257.95 188.76L261.25 186.58L264.65 184.52L268.14 182.58L271.72 180.77L275.37 179.08L279.11 177.52L282.91 176.1L286.79 174.81L290.74 173.66L294.76 172.66L298.83 171.8L302.96 171.09L307.15 170.53L311.39 170.13L315.67 169.88L320 169.8L324.33 169.88L328.61 170.13ZM286.34 222.08L285.52 222.13L284.72 222.21L283.92 222.32L283.13 222.47L282.36 222.64L281.59 222.85L280.84 223.08L280.1 223.34L279.38 223.63L278.67 223.95L277.97 224.3L277.29 224.66L276.63 225.06L275.98 225.48L275.35 225.92L274.74 226.39L274.15 226.88L273.57 227.39L273.02 227.92L272.49 228.47L271.98 229.05L271.49 229.64L271.02 230.25L270.58 230.88L270.16 231.53L269.76 232.19L269.39 232.87L269.05 233.57L268.73 234.28L268.44 235L268.18 235.74L267.95 236.49L267.74 237.26L267.57 238.03L267.42 238.82L267.31 239.62L267.23 240.42L267.18 241.24L267.16 242.06L267.16 352.89L268.14 353.43L271.72 355.25L275.37 356.94L279.11 358.5L282.91 359.92L286.79 361.21L290.74 362.36L294.76 363.36L297.3 363.9L297.18 364.69L297.07 366.02L297.03 367.37L297.07 368.72L297.18 370.04L297.37 371.35L297.63 372.63L297.97 373.89L298.37 375.11L298.83 376.31L299.36 377.47L299.95 378.59L300.61 379.68L301.31 380.73L302.08 381.73L302.89 382.69L303.76 383.61L304.67 384.47L305.64 385.29L306.64 386.05L307.69 386.76L308.78 387.41L309.9 388L311.06 388.53L312.26 389L313.48 389.4L314.74 389.73L316.02 390L317.32 390.19L318.65 390.3L320 390.34L321.35 390.3L322.68 390.19L323.98 390L325.26 389.73L326.52 389.4L327.74 389L328.94 388.53L330.1 388L331.22 387.41L332.31 386.76L333.36 386.05L334.36 385.29L335.33 384.47L336.24 383.61L337.11 382.69L337.92 381.73L338.69 380.73L339.39 379.68L340.05 378.59L340.64 377.47L341.17 376.31L341.63 375.11L342.03 373.89L342.37 372.63L342.63 371.35L342.82 370.04L342.93 368.72L342.97 367.37L342.93 366.02L342.82 364.69L342.7 363.9L345.24 363.36L349.26 362.36L353.21 361.21L357.09 359.92L360.89 358.5L364.63 356.94L368.28 355.25L371.86 353.43L372.84 352.89L372.84 242.06L372.82 241.24L372.77 240.42L372.69 239.62L372.58 238.82L372.43 238.03L372.26 237.26L372.05 236.49L371.82 235.74L371.56 235L371.27 234.28L370.95 233.57L370.61 232.87L370.24 232.19L369.84 231.53L369.42 230.88L368.98 230.25L368.51 229.64L368.02 229.05L367.51 228.47L366.98 227.92L366.43 227.39L365.85 226.88L365.26 226.39L364.65 225.92L364.02 225.48L363.37 225.06L362.71 224.66L362.03 224.3L361.33 223.95L360.62 223.63L359.9 223.34L359.16 223.08L358.41 222.85L357.64 222.64L356.87 222.47L356.08 222.32L355.28 222.21L354.48 222.13L353.66 222.08L352.84 222.06L287.16 222.06L286.34 222.08ZM322.68 344.55L323.98 344.74L325.26 345L326.52 345.33L327.74 345.73L328.94 346.2L330.1 346.73L331.22 347.32L332.31 347.97L333.36 348.68L334.36 349.44L335.33 350.26L336.24 351.13L337.11 352.04L337.92 353L338.69 354.01L339.39 355.06L340.05 356.14L340.64 357.27L341.17 358.43L341.63 359.62L342.03 360.85L342.37 362.1L342.63 363.38L342.7 363.9L341.17 364.22L337.04 364.93L332.85 365.49L328.61 365.89L324.33 366.14L320 366.22L315.67 366.14L311.39 365.89L307.15 365.49L302.96 364.93L298.83 364.22L297.3 363.9L297.37 363.38L297.63 362.1L297.97 360.85L298.37 359.62L298.83 358.43L299.36 357.27L299.95 356.14L300.61 355.06L301.31 354.01L302.08 353L302.89 352.04L303.76 351.13L304.67 350.26L305.64 349.44L306.64 348.68L307.69 347.97L308.78 347.32L309.9 346.73L311.06 346.2L312.26 345.73L313.48 345.33L314.74 345L316.02 344.74L317.32 344.55L318.65 344.43L320 344.39L321.35 344.43L322.68 344.55Z" id="b2FKgkHD5Y"></path><path d="M336.84 195.64C343.72 195.64 349.29 201.22 349.29 208.09C349.29 233.63 349.29 297.79 349.29 323.33C349.29 330.21 343.72 335.78 336.84 335.78C327.62 335.78 312.38 335.78 303.16 335.78C296.28 335.78 290.71 330.21 290.71 323.33C290.71 297.79 290.71 233.63 290.71 208.09C290.71 201.22 296.28 195.64 303.16 195.64C312.38 195.64 327.62 195.64 336.84 195.64Z" id="b310vO2IQm"></path><path d="M567.2 48.49C572.9 54.19 572.9 63.43 567.2 69.13C546.03 90.29 492.85 143.47 471.69 164.64C465.99 170.34 456.75 170.34 451.05 164.64C444.83 158.42 436.48 150.07 430.26 143.85C424.56 138.15 424.56 128.91 430.26 123.21C451.43 102.05 504.61 48.87 525.77 27.7C531.47 22.01 540.71 22.01 546.41 27.7C552.63 33.92 560.98 42.27 567.2 48.49Z" id="c1Tm8yq42Y"></path><path d="M617.3 280.41C617.3 288.47 610.76 295 602.71 295C572.77 295 497.57 295 467.63 295C459.57 295 453.04 288.47 453.04 280.41C453.04 271.61 453.04 259.81 453.04 251.01C453.04 242.95 459.57 236.42 467.63 236.42C497.57 236.42 572.77 236.42 602.71 236.42C610.76 236.42 617.3 242.95 617.3 251.01C617.3 259.81 617.3 271.61 617.3 280.41Z" id="a80KCUuSd"></path><path d="M546.41 496.08C540.71 501.78 531.47 501.78 525.77 496.08C504.61 474.91 451.43 421.73 430.26 400.57C424.56 394.87 424.56 385.63 430.26 379.93C436.48 373.71 444.83 365.37 451.05 359.15C456.75 353.45 465.99 353.45 471.69 359.15C492.85 380.31 546.03 433.49 567.2 454.66C572.9 460.36 572.9 469.59 567.2 475.29C560.98 481.51 552.63 489.86 546.41 496.08Z" id="g7TAruPZJ"></path><path d="M170.95 280.72C170.95 288.61 164.55 295 156.66 295C127.36 295 53.73 295 24.42 295C16.53 295 10.14 288.61 10.14 280.72C10.14 271.86 10.14 259.57 10.14 250.71C10.14 242.82 16.53 236.42 24.42 236.42C53.73 236.42 127.36 236.42 156.66 236.42C164.55 236.42 170.95 242.82 170.95 250.71C170.95 259.57 170.95 271.86 170.95 280.72Z" id="agg90TUeK"></path><path d="M188.95 164.64C183.25 170.34 174.01 170.34 168.31 164.64C147.15 143.47 93.97 90.29 72.8 69.13C67.1 63.43 67.1 54.19 72.8 48.49C79.02 42.27 87.37 33.92 93.59 27.7C99.29 22.01 108.53 22.01 114.23 27.7C135.39 48.87 188.57 102.05 209.74 123.21C215.44 128.91 215.44 138.15 209.74 143.85C203.52 150.07 195.17 158.42 188.95 164.64Z" id="a80OjBYrSQ"></path><path d="M209.95 383.6C215.53 389.17 215.53 398.22 209.95 403.8C189.23 424.52 137.17 476.58 116.45 497.31C110.87 502.88 101.82 502.88 96.24 497.31C89.98 491.04 81.29 482.35 75.02 476.09C69.44 470.51 69.44 461.46 75.02 455.88C95.74 435.16 147.81 383.1 168.53 362.38C174.11 356.8 183.15 356.8 188.73 362.38C195 368.64 203.69 377.33 209.95 383.6Z" id="cgKONKCNK"></path></defs><g><g><g><use xlink:href="#a8HU8e61ml" opacity="1" fill="#1995ad" fill-opacity="1"></use></g><g><use xlink:href="#b2FKgkHD5Y" opacity="1" fill="#1995ad" fill-opacity="1"></use></g><g><use xlink:href="#b310vO2IQm" opacity="1" fill="#1bc2bf" fill-opacity="1"></use></g><g><use xlink:href="#c1Tm8yq42Y" opacity="1" fill="#1bc2bf" fill-opacity="1"></use></g><g><use xlink:href="#a80KCUuSd" opacity="1" fill="#1bc2bf" fill-opacity="1"></use></g><g><use xlink:href="#g7TAruPZJ" opacity="1" fill="#1bc2bf" fill-opacity="1"></use></g><g><use xlink:href="#agg90TUeK" opacity="1" fill="#1bc2bf" fill-opacity="1"></use></g><g><use xlink:href="#a80OjBYrSQ" opacity="1" fill="#1bc2bf" fill-opacity="1"></use></g><g><use xlink:href="#cgKONKCNK" opacity="1" fill="#1bc2bf" fill-opacity="1"></use></g></g></g></svg>